<?xml version="1.0" standalone="no"?>
<!DOCTYPE svg PUBLIC "-//W3C//DTD SVG 20010904//EN"
 "http://www.w3.org/TR/2001/REC-SVG-20010904/DTD/svg10.dtd">
<svg version="1.0" xmlns="http://www.w3.org/2000/svg"
 width="700.000000pt" height="700.000000pt" viewBox="0 0 700.000000 700.000000"
 preserveAspectRatio="xMidYMid meet">
<metadata>
Created by potrace 1.11, written by Peter Selinger 2001-2013
</metadata>
<g transform="translate(0.000000,700.000000) scale(0.100000,-0.100000)"
fill="#000000" stroke="none">
<path d="M1110 6993 c-221 -24 -441 -108 -610 -234 -244 -182 -400 -425 -473
-734 l-21 -90 -4 -2335 c-3 -2425 -2 -2503 38 -2664 130 -516 562 -880 1099
-926 87 -8 853 -10 2461 -8 2544 4 2358 0 2544 58 186 58 364 169 503 313 170
175 269 358 326 602 l21 90 4 2380 c2 1723 0 2406 -8 2473 -24 197 -100 396
-212 559 -68 99 -202 233 -301 301 -96 66 -258 144 -357 172 -187 52 -86 50
-2620 48 -1295 -1 -2371 -3 -2390 -5z m2510 -328 c0 -165 3 -215 13 -215 56 0
268 -25 383 -45 1046 -183 1917 -926 2272 -1937 77 -219 136 -508 157 -770 l7
-78 214 0 214 0 0 -120 0 -120 -215 0 c-165 0 -215 -3 -215 -12 0 -7 -5 -62
-10 -123 -34 -377 -127 -709 -295 -1050 -394 -803 -1133 -1382 -2015 -1578
-117 -26 -278 -50 -427 -62 l-83 -7 0 -214 0 -214 -120 0 -120 0 0 214 0 214
-82 7 c-333 27 -649 101 -923 216 -1038 432 -1734 1396 -1820 2522 l-7 87
-214 0 -214 0 0 120 0 120 214 0 214 0 7 88 c39 516 203 996 486 1422 283 426
665 767 1115 997 362 185 712 282 1147 318 l77 7 0 214 0 214 120 0 120 0 0
-215z"/>
<path d="M3270 6074 c-14 -2 -65 -9 -115 -15 -132 -16 -344 -64 -475 -109
-984 -334 -1671 -1212 -1756 -2247 l-7 -83 342 0 341 0 0 -120 0 -120 -341 0
-342 0 7 -82 c78 -943 657 -1765 1519 -2155 255 -115 568 -195 855 -218 l82
-7 0 341 0 341 120 0 120 0 0 -341 0 -341 78 6 c632 56 1189 313 1627 751 436
436 700 1007 751 1623 l7 82 -342 0 -341 0 0 120 0 120 340 0 340 0 0 28 c0
15 -7 84 -15 154 -139 1187 -1076 2124 -2262 2263 -70 8 -140 15 -155 15 l-28
0 0 -340 0 -340 -120 0 -120 0 0 340 0 340 -42 -1 c-24 -1 -54 -3 -68 -5z
m-410 -1704 l0 -650 640 0 640 0 0 650 0 650 260 0 260 0 0 -1525 0 -1525
-260 0 -260 0 0 655 0 655 -640 0 -640 0 0 -655 0 -655 -260 0 -260 0 0 1525
0 1525 260 0 260 0 0 -650z"/>
</g>
</svg>
