<svg xmlns="http://www.w3.org/2000/svg" xmlns:xlink="http://www.w3.org/1999/xlink" viewBox="0 0 15.081 15.081" height="57" width="57"><defs><linearGradient id="b"><stop style="stop-color:#ffb380;stop-opacity:1" offset="0"/><stop style="stop-color:#ff7f2a;stop-opacity:1" offset=".25"/><stop style="stop-color:#ff7f2a;stop-opacity:1" offset=".65"/><stop style="stop-color:#d45500;stop-opacity:1" offset="1"/></linearGradient><linearGradient id="a"><stop style="stop-color:#fff;stop-opacity:1" offset="0"/><stop style="stop-color:#fff;stop-opacity:0" offset="1"/></linearGradient><linearGradient xlink:href="#b" id="c" x1="0" y1="15.081" x2="15.081" y2="0" gradientUnits="userSpaceOnUse"/><filter style="color-interpolation-filters:sRGB" id="d" x="0" width="1" y="0" height="1"><feGaussianBlur/></filter></defs><rect style="mix-blend-mode:normal;fill:url(#c);fill-opacity:1;stroke:none;stroke-width:.264583" width="15.081" height="15.081" ry="2.646" rx="2.646"/><circle style="opacity:1;fill:none;fill-opacity:1;stroke:#ddd;stroke-width:.79375;stroke-miterlimit:4;stroke-dasharray:none;stroke-opacity:1" cx="7.541" cy="7.541" r="5.963"/><path style="opacity:1;fill:#ddd;fill-opacity:1;stroke:none;stroke-width:.874012;stroke-miterlimit:4;stroke-dasharray:none;stroke-opacity:1" transform="rotate(90)" d="M11.642-7.805h3.175v.529h-3.175z"/><path style="opacity:1;fill:#ddd;fill-opacity:1;stroke:none;stroke-width:.874011;stroke-miterlimit:4;stroke-dasharray:none;stroke-opacity:1;filter:url(#d)" transform="rotate(90)" d="M.265-7.805H3.44v.529H.265z"/><path style="opacity:1;fill:#ddd;fill-opacity:1;stroke:none;stroke-width:.874011;stroke-miterlimit:4;stroke-dasharray:none;stroke-opacity:1" transform="scale(-1)" d="M-3.44-7.805h3.175v.529H-3.44z"/><path style="opacity:1;fill:#ddd;fill-opacity:1;stroke:none;stroke-width:.87401;stroke-miterlimit:4;stroke-dasharray:none;stroke-opacity:1" transform="scale(-1)" d="M-14.817-7.805h3.175v.529h-3.175z"/><text xml:space="preserve" style="font-style:normal;font-variant:normal;font-weight:700;font-stretch:normal;font-size:8.46667px;line-height:1.25;font-family:'Yu Gothic';-inkscape-font-specification:'Yu Gothic Bold';fill:#fff;fill-opacity:1;stroke:none;stroke-width:.264583" x="4.254" y="10.809"/><path style="fill:#fff;stroke:#ddd;stroke-width:1.1004;fill-opacity:1" d="M5.598 4.807h.015v5.466h-.015zM9.472 4.807h.015v5.466h-.015z"/><path style="fill:#ff2a2a;stroke:#ddd;stroke-width:.912573;fill-opacity:1;opacity:1" d="M6.331 7.529h2.42v.023h-2.42z"/><path style="opacity:1;fill:#fff;fill-opacity:1;stroke:none;stroke-width:.133929" d="M19.082 28.52V16.13h4.196v10.625h10.447V16.131h4.196v24.777h-4.196v-10.67H23.278v10.67h-4.196z" transform="scale(.26458)"/></svg>